# xmcd
#
# Track frame offsets:
#	150
#	17341
#	35441
#	49909
#	67961
#	83909
#	101541
#	117535
#	134002
#	154543
#	171734
#	189834
#	204302
#	222354
#	238302
#	255934
#	271928
#	288395
#
# Disc length: 4119 seconds
#
# Revision: 1
# Processed by: cddbd v1.5.2PL0 Copyright (c) Steve Scherf et al.
# Submitted via: audiograbber 1.83.01
#
DISCID=02101512
DTITLE=Various Artist - Top Hits Monthly 20903-2
DYEAR=2009
DGENRE=Karaoke
TTITLE0=Keith Urban - Sweet Thing
TTITLE1=Martina McBride - Ride
TTITLE2=Kenny Chesney with Mac McAnally - Down the Road
TTITLE3=Lee Ann Womack - The King Of Broken Hearts
TTITLE4=Rodney Atkins - It's America
TTITLE5=Jamie O'Neal - Like A Woman
TTITLE6=James Otto - These Are The Good Old Days
TTITLE7=Crystal Shawanda - My Roots Are Showing
TTITLE8=Jason Michael Carroll - Where I'm From
TTITLE9=Keith Urban - Sweet Thing - vocal
TTITLE10=Martina McBride - Ride - vocal
TTITLE11=Kenny Chesney with Mac McAnally - Down the Road - vocal
TTITLE12=Lee Ann Womack - The King Of Broken Hearts - vocal
TTITLE13=Rodney Atkins - It's America - vocal
TTITLE14=Jamie O'Neal - Like A Woman - vocal
TTITLE15=James Otto - These Are The Good Old Days - vocal
TTITLE16=Crystal Shawanda - My Roots Are Showing - vocal
TTITLE17=Jason Michael Carroll - Where I'm From - vocal
EXTD=
EXTT0=
EXTT1=
EXTT2=
EXTT3=
EXTT4=
EXTT5=
EXTT6=
EXTT7=
EXTT8=
EXTT9=
EXTT10=
EXTT11=
EXTT12=
EXTT13=
EXTT14=
EXTT15=
EXTT16=
EXTT17=
PLAYORDER=
